<?xml version="1.0" encoding="utf-8"?>
<!-- Generator: Adobe Illustrator 22.1.0, SVG Export Plug-In . SVG Version: 6.00 Build 0)  -->
<svg version="1.1" id="Capa_1" xmlns="http://www.w3.org/2000/svg" xmlns:xlink="http://www.w3.org/1999/xlink" x="0px" y="0px"
	 viewBox="0 0 599.1 700" style="enable-background:new 0 0 599.1 700;" xml:space="preserve">
<style type="text/css">
	.st0{fill:#4B9FA4;}
</style>
<path class="st0" d="M594.5,81.7L546.2,9.3C542.3,3.5,535.8,0,528.8,0s-13.5,3.5-17.4,9.3l-49.3,73.9c-4.3,6.4-4.7,14.7-1,21.5
	c3.6,6.8,10.7,11.1,18.4,11.1h6.3v61.7c-25.3-24.7-55.1-44.6-88.5-59c-34.5-14.9-72-22.4-111.2-22.4c-39.2,0-76.7,7.5-111.2,22.4
	c-34.4,14.9-65,35.5-90.8,61.2c-25.8,25.8-46.5,56.4-61.4,91c-15,34.7-22.6,72-22.6,111s7.5,76.3,22.4,111
	c14.8,34.6,35.4,65.2,61.3,91c25.8,25.8,56.3,46.4,90.8,61.2c34.6,14.9,72,22.4,111.2,22.4c39.3,0,76.7-7.5,111.2-22.4
	c33.6-14.5,63.5-34.5,88.9-59.4l0,70.3c0,0.3,0,0.8,0,1.1c0,23.7,19.3,43,43,43c23.7,0,43-19.3,43-43c0-0.4,0-0.7,0-0.6V381.7
	c0-1,0-2-0.1-3l0-0.3c0-0.4,0.1-0.8,0.1-1.2V115.8h6.4c11.5,0,20.9-9.4,20.9-20.9C599.1,90,597.5,85.4,594.5,81.7z M485.8,381.7
	c0,54.9-19.6,102.6-58.4,141.7c-18.3,17.7-39.8,32.1-64,42.7c-24.1,10.5-50.2,15.8-77.7,15.8c-27.5,0-53.6-5.3-77.7-15.8
	c-24.2-10.6-45.7-24.9-63.6-42.6C105.6,484.4,86,436.7,86,381.7c0-55,19.7-102.6,58.3-141.6c18.3-17.8,39.8-32.1,64.1-42.7
	c24.1-10.5,50.2-15.8,77.7-15.8c27.5,0,53.6,5.3,77.7,15.8c24.2,10.6,45.7,24.9,63.6,42.6C466.2,279,485.8,326.7,485.8,381.7z"/>
</svg>
