<?xml version="1.0" encoding="UTF-8" standalone="no"?>
<svg
   xmlns:dc="http://purl.org/dc/elements/1.1/"
   xmlns:cc="http://creativecommons.org/ns#"
   xmlns:rdf="http://www.w3.org/1999/02/22-rdf-syntax-ns#"
   xmlns:svg="http://www.w3.org/2000/svg"
   xmlns="http://www.w3.org/2000/svg"
   viewBox="0 0 1133.8586 1133.8586"
   height="1133.8586"
   width="1133.8586"
   xml:space="preserve"
   id="svg2"
   version="1.1"><metadata
     id="metadata8"><rdf:RDF><cc:Work
         rdf:about=""><dc:format>image/svg+xml</dc:format><dc:type
           rdf:resource="http://purl.org/dc/dcmitype/StillImage" /></cc:Work></rdf:RDF></metadata><defs
     id="defs6"><clipPath
       id="clipPath20"
       clipPathUnits="userSpaceOnUse"><path
         id="path18"
         d="M 0,850.394 H 850.394 V 0 H 0 Z" /></clipPath></defs><g
     transform="matrix(1.3333333,0,0,-1.3333333,0,1133.8587)"
     id="g10"><path
       id="path12"
       style="fill:#008dd3;fill-opacity:1;fill-rule:nonzero;stroke:none"
       d="M 0,0 H 850.394 V 23.971 H 0 Z" /><g
       id="g14"><g
         clip-path="url(#clipPath20)"
         id="g16"><g
           transform="translate(439.8186,339.8997)"
           id="g22"><path
             id="path24"
             style="fill:#1b2c4d;fill-opacity:1;fill-rule:nonzero;stroke:none"
             d="m 0,0 c -5.79,-1.191 -11.595,-1.752 -14.7,-1.886 -10.436,-0.478 -12.402,3.865 -12.402,19.133 0,15.272 1.991,19.704 12.402,19.236 3.105,-0.135 9.785,-1.545 14.707,-2.037 l 1.455,8.92 c -4.871,0.868 -11.279,2.021 -15.645,2.193 -23.183,1.037 -28.81,-8.732 -28.81,-28.312 0,-19.58 5.643,-29.18 28.823,-28.303 4.724,0.173 11.048,1.05 15.983,2.011 z" /></g><g
           transform="translate(230.339,363.5457)"
           id="g26"><path
             id="path28"
             style="fill:#1b2c4d;fill-opacity:1;fill-rule:nonzero;stroke:none"
             d="m 0,0 v -22.905 h 17.503 c 8.26,0 12.259,2.249 12.259,12.287 C 29.762,-0.07 22.201,0 16.667,0 Z M 0,32.011 V 10.58 h 16.667 c 7.646,0 10.273,3.141 10.273,11.697 0,7.74 -2.556,9.734 -11.429,9.734 z m 15.511,10.714 c 16.902,0 26.982,-7.002 26.982,-20.448 0,-8.116 -2.828,-13.181 -7.252,-16.175 5.356,-2.69 10.073,-7.497 10.073,-16.72 0,-17.467 -12.287,-22.989 -27.811,-22.989 H -15.44 v 76.332 z" /></g><g
           transform="translate(313.9736,356.6165)"
           id="g30"><path
             id="path32"
             style="fill:#1b2c4d;fill-opacity:1;fill-rule:nonzero;stroke:none"
             d="m 0,0 c 0,0 -5.02,0.074 -10.086,-0.558 -5.237,-0.661 -8.16,-3.304 -8.16,-8.668 0,-4.018 1.305,-7.533 6.906,-8.624 3.53,-0.689 7.085,-0.482 11.34,-0.009 z m -28.976,25.747 c 9.089,1.799 15.409,3.108 22.044,3.108 15.296,0 22.287,-7.175 22.287,-18.242 v -36.732 c -9.314,-1.073 -18.837,-2.177 -29.088,-1.12 -12.652,1.308 -20.417,7.781 -20.417,17.984 0,9.275 5.56,15.878 20.101,17.579 C -7.702,9.065 0,9.1 0,9.1 v 2.109 c 0,5.652 -1.995,8.234 -6.932,8.234 -5.282,0 -11.735,-1.254 -20.394,-2.961 z" /></g><g
           transform="translate(482.6111,358.0724)"
           id="g34"><path
             id="path36"
             style="fill:#1b2c4d;fill-opacity:1;fill-rule:nonzero;stroke:none"
             d="m 0,0 c 0,13.938 -4.667,18.182 -12.001,18.182 -9.261,0 -12.453,-3.134 -12.453,-17.987 0,-15.871 2.12,-20.132 12.453,-20.132 C -1.82,-19.937 0,-14.901 0,0 m -12.001,27.406 c 17.407,0 27.729,-8.4 27.729,-27.406 0,-18.919 -5.668,-29.114 -27.729,-29.114 -21.784,0 -28.181,8.921 -28.181,29.309 0,19.241 9.166,27.201 28.181,27.201 z" /></g><g
           transform="translate(560.7902,375.571)"
           id="g38"><path
             id="path40"
             style="fill:#1b2c4d;fill-opacity:1;fill-rule:nonzero;stroke:none"
             d="m 0,0 c -2.655,0.69 -6.644,1.341 -10.595,0.796 -7.647,-1.051 -9.505,-5.333 -9.505,-18.183 0,-13.459 1.57,-19.242 12.977,-19.918 4.596,-0.272 7.123,0.179 7.123,0.179 z m 0,30.646 h 15.314 v -75.984 c -8.465,-0.955 -14.088,-1.341 -20.196,-1.341 -25.865,0 -31.144,10.647 -31.144,29.493 0,16.778 5.822,27.205 25.424,27.205 3.99,0 7.635,-0.278 10.602,-0.68 z" /></g><g
           transform="translate(619.9557,362.0011)"
           id="g42"><path
             id="path44"
             style="fill:#1b2c4d;fill-opacity:1;fill-rule:nonzero;stroke:none"
             d="m 0,0 c -0.396,10.934 -3.421,14.25 -10.89,14.25 -7.047,0 -10.123,-3.399 -10.539,-14.25 z m 13.449,-30.444 c -8.381,-1.756 -16.028,-2.707 -23.528,-2.707 -22.845,0 -27.441,11.921 -27.441,28.342 0,20.77 9.619,28.279 26.081,28.279 17.72,0 26.982,-8.355 26.982,-26.422 v -6.265 h -36.972 c 0.416,-10.139 2.573,-14.649 11.503,-14.649 5.158,0 16.168,1.414 21.696,2.614 z" /></g><g
           transform="translate(337.5208,380.0463)"
           id="g46"><path
             id="path48"
             style="fill:#1b2c4d;fill-opacity:1;fill-rule:nonzero;stroke:none"
             d="m 0,0 c 8.863,3.517 17.014,5.53 26.307,5.53 19.807,0 26.554,-9.603 26.554,-27.201 V -50.049 H 37.462 v 28.372 c 0,13.506 -3.003,17.994 -11.155,17.994 -4.04,0 -8.396,-0.884 -11.144,-1.638 V -50.049 H 0 Z" /></g><g
           transform="translate(292.5615,568.0256)"
           id="g50"><path
             id="path52"
             style="fill:#008dd3;fill-opacity:1;fill-rule:nonzero;stroke:none"
             d="M 0,0 132.633,-132.635 265.274,0 234.43,30.837 132.633,-70.941 61.692,0 l 70.941,70.931 30.243,-30.234 30.85,30.843 -61.093,61.09 z" /></g><g
           transform="translate(557.8353,639.5284)"
           id="g54"><path
             id="path56"
             style="fill:#008dd3;fill-opacity:1;fill-rule:nonzero;stroke:none"
             d="M 0,0 -132.634,132.636 -265.274,0 l 30.84,-30.84 101.8,101.782 L -61.699,0 l -70.935,-70.931 -30.24,30.228 -30.852,-30.841 61.092,-61.086 z" /></g><g
           transform="translate(358.837,233.0764)"
           id="g58"><path
             id="path60"
             style="fill:#008dd3;fill-opacity:1;fill-rule:nonzero;stroke:none"
             d="m 0,0 c -5.783,-1.191 -11.599,-1.753 -14.7,-1.893 -10.437,-0.475 -12.403,3.868 -12.403,19.136 0,15.275 1.992,19.705 12.403,19.236 3.108,-0.134 9.781,-1.545 14.706,-2.037 l 1.456,8.921 c -4.864,0.868 -11.272,2.024 -15.651,2.196 -23.178,1.034 -28.801,-8.736 -28.801,-28.316 0,-19.576 5.643,-29.176 28.813,-28.308 4.73,0.182 11.059,1.055 15.996,2.014 z" /></g><g
           transform="translate(311.5413,233.0764)"
           id="g62"><path
             id="path64"
             style="fill:#008dd3;fill-opacity:1;fill-rule:nonzero;stroke:none"
             d="m 0,0 c -5.786,-1.191 -11.595,-1.753 -14.697,-1.893 -10.442,-0.475 -12.402,3.868 -12.402,19.136 0,15.275 1.991,19.705 12.402,19.236 3.102,-0.134 9.773,-1.545 14.707,-2.037 l 1.452,8.921 c -4.867,0.868 -11.279,2.024 -15.648,2.196 -23.177,1.034 -28.806,-8.736 -28.806,-28.316 0,-19.576 5.642,-29.176 28.822,-28.308 4.72,0.182 11.052,1.055 15.983,2.014 z" /></g><g
           transform="translate(226.7781,232.9261)"
           id="g66"><path
             id="path68"
             style="fill:#008dd3;fill-opacity:1;fill-rule:nonzero;stroke:none"
             d="m 0,0 c 16.979,0 19.915,8.489 19.915,29.528 0,20.25 -7.634,27.166 -19.915,27.166 -14.879,0 -20.547,-5.506 -20.547,-26.897 C -20.547,7.171 -17.161,0 0,0 M 35.719,29.528 C 35.719,3.041 28.713,-10.685 0,-10.685 c -28.494,0 -36.349,11.936 -36.349,40.482 0,26.878 11.436,37.506 36.349,37.506 22.723,0 35.719,-11.244 35.719,-37.775" /></g><path
           id="path70"
           style="fill:#008dd3;fill-opacity:1;fill-rule:nonzero;stroke:none"
           d="m 367.792,277.62 h 15.16 v -54.505 h -15.16 z m 0,19.755 h 15.16 v -11.457 h -15.16 z" /><g
           transform="translate(426.5614,268.7444)"
           id="g72"><path
             id="path74"
             style="fill:#008dd3;fill-opacity:1;fill-rule:nonzero;stroke:none"
             d="m 0,0 c -2.649,0.689 -6.632,1.341 -10.594,0.798 -7.649,-1.05 -9.507,-5.339 -9.507,-18.186 0,-13.458 1.571,-19.359 12.98,-19.918 0.769,-0.051 1.714,-0.079 2.723,-0.079 1.341,0 3.092,0.214 4.398,0.261 z m 0,30.645 h 15.313 v -75.983 c -8.662,-0.732 -14.088,-1.338 -20.186,-1.338 -25.881,0 -31.148,10.643 -31.148,29.49 0,16.778 5.819,27.208 25.427,27.208 4,0 7.632,-0.281 10.594,-0.68 z" /></g><g
           transform="translate(509.6811,273.2222)"
           id="g76"><path
             id="path78"
             style="fill:#008dd3;fill-opacity:1;fill-rule:nonzero;stroke:none"
             d="m 0,0 c 8.861,3.513 17.011,5.527 26.305,5.527 19.807,0 26.547,-9.605 26.547,-27.201 V -50.053 H 37.456 v 28.373 c 0,13.507 -3,17.99 -11.151,17.99 -4.034,0 -8.387,-0.88 -11.145,-1.634 V -50.053 H 0 Z" /></g><g
           transform="translate(590.8422,290.2776)"
           id="g80"><path
             id="path82"
             style="fill:#008dd3;fill-opacity:1;fill-rule:nonzero;stroke:none"
             d="M 0,0 V -12.906 H 12.115 V -22.12 H 0 v -27.064 c 0,-6.288 0.485,-8.624 3.159,-9.001 2.375,-0.335 4.743,0.048 8.911,0.422 l 1.8,-9.074 c -6.664,-1.302 -11.445,-1.36 -13.743,-1.36 -13.468,0 -15.804,6.228 -15.804,19.013 v 27.057 h -9.339 v 9.221 h 9.339 V 0 Z" /></g><g
           transform="translate(486.9324,255.2253)"
           id="g84"><path
             id="path86"
             style="fill:#008dd3;fill-opacity:1;fill-rule:nonzero;stroke:none"
             d="M 0,0 C -0.403,10.934 -3.428,14.257 -10.89,14.257 -17.93,14.257 -21.02,10.86 -21.428,0 Z m 13.442,-30.447 c -8.374,-1.749 -16.021,-2.701 -23.528,-2.701 -22.845,0 -27.44,11.914 -27.44,28.351 0,20.761 9.619,28.267 26.081,28.267 17.726,0 26.988,-8.358 26.988,-26.422 v -6.266 h -36.971 c 0.415,-10.135 2.566,-14.642 11.502,-14.642 5.151,0 16.162,1.414 21.696,2.617 z" /></g><g
           transform="translate(644.4216,255.1714)"
           id="g88"><path
             id="path90"
             style="fill:#008dd3;fill-opacity:1;fill-rule:nonzero;stroke:none"
             d="M 0,0 C -0.408,10.934 -3.428,14.257 -10.889,14.257 -17.937,14.257 -21.02,10.86 -21.434,0 Z m 13.443,-30.438 c -8.375,-1.759 -16.022,-2.706 -23.522,-2.706 -22.845,0 -27.453,11.913 -27.453,28.341 0,20.77 9.631,28.273 26.094,28.273 17.719,0 26.981,-8.356 26.981,-26.422 v -6.262 h -36.977 c 0.421,-10.14 2.572,-14.649 11.508,-14.649 5.151,0 16.168,1.414 21.696,2.613 z" /></g><g
           transform="translate(148.3929,127.6778)"
           id="g92"><path
             id="path94"
             style="fill:#1d1d1d;fill-opacity:1;fill-rule:nonzero;stroke:none"
             d="m 0,0 c 2.381,1.295 4.231,3.085 5.559,5.374 1.322,2.288 1.985,4.877 1.985,7.764 0,3.345 -1.021,6.006 -3.063,7.976 -2.04,1.973 -4.814,2.959 -8.322,2.959 h -6.66 l -3.677,-26.015 h 6.041 c 3.043,0 5.754,0.648 8.137,1.942 m 5.181,26.475 c 2.378,-1.283 4.22,-3.073 5.519,-5.361 1.295,-2.289 1.945,-4.911 1.945,-7.87 C 12.645,9.458 11.758,6.087 9.988,3.128 8.213,0.172 5.732,-2.135 2.537,-3.79 -0.658,-5.446 -4.323,-6.273 -8.461,-6.273 h -11.116 l 4.945,34.675 h 11.569 c 3.115,0 5.863,-0.643 8.244,-1.927" /></g><g
           transform="translate(184.1288,135.1919)"
           id="g96"><path
             id="path98"
             style="fill:#1d1d1d;fill-opacity:1;fill-rule:nonzero;stroke:none"
             d="m 0,0 c 0.109,2.129 -0.452,3.825 -1.677,5.083 -1.227,1.26 -2.905,1.888 -5.035,1.888 -2.129,0 -3.924,-0.611 -5.384,-1.836 C -13.555,3.912 -14.4,2.2 -14.632,0 Z m -0.267,-12.256 c -2.24,-1.46 -4.825,-2.189 -7.76,-2.189 -2.311,0 -4.344,0.486 -6.11,1.464 -1.762,0.977 -3.117,2.35 -4.069,4.12 -0.945,1.769 -1.42,3.808 -1.42,6.113 0,2.552 0.56,4.862 1.676,6.921 1.12,2.059 2.668,3.673 4.645,4.844 1.979,1.171 4.194,1.757 6.647,1.757 2.201,0 4.166,-0.471 5.893,-1.412 C 0.963,8.42 2.3,7.129 3.249,5.491 4.199,3.853 4.67,1.99 4.67,-0.106 4.67,-1.145 4.529,-2.194 4.242,-3.25 h -19.359 c -0.178,-2.235 0.408,-4.044 1.762,-5.426 1.349,-1.384 3.178,-2.072 5.489,-2.072 1.647,0 3.131,0.378 4.455,1.133 1.326,0.759 2.301,1.745 2.927,2.959 h 4.511 c -0.625,-2.27 -2.059,-4.138 -4.294,-5.6" /></g><g
           transform="translate(198.2527,158.5112)"
           id="g100"><path
             id="path102"
             style="fill:#1d1d1d;fill-opacity:1;fill-rule:nonzero;stroke:none"
             d="M 0,0 H 4.566 L -0.726,-37.106 H -5.292 Z" /></g><g
           transform="translate(223.5729,158.5112)"
           id="g104"><path
             id="path106"
             style="fill:#1d1d1d;fill-opacity:1;fill-rule:nonzero;stroke:none"
             d="m 0,0 h 4.564 l -5.29,-37.106 h -4.566 z" /></g><g
           transform="translate(247.1575,125.947)"
           id="g108"><path
             id="path110"
             style="fill:#1d1d1d;fill-opacity:1;fill-rule:nonzero;stroke:none"
             d="m 0,0 c 1.299,0.758 2.333,1.822 3.102,3.198 0.769,1.373 1.154,2.938 1.154,4.7 0,2.411 -0.691,4.358 -2.079,5.835 -1.388,1.479 -3.2,2.22 -5.439,2.22 -1.575,0 -3.018,-0.38 -4.321,-1.136 -1.308,-0.756 -2.344,-1.832 -3.117,-3.222 -0.767,-1.392 -1.154,-2.967 -1.154,-4.729 0,-2.376 0.7,-4.302 2.097,-5.782 1.394,-1.479 3.228,-2.218 5.502,-2.218 1.54,0 2.956,0.376 4.255,1.134 M 10.54,19.307 7.129,-4.542 H 2.726 l 0.431,3.302 c -0.95,-1.234 -2.22,-2.201 -3.815,-2.905 -1.592,-0.704 -3.328,-1.058 -5.207,-1.058 -2.059,0 -3.903,0.498 -5.53,1.493 -1.63,0.995 -2.903,2.387 -3.815,4.172 -0.912,1.788 -1.37,3.834 -1.37,6.142 0,2.552 0.56,4.848 1.681,6.892 1.117,2.042 2.645,3.641 4.59,4.794 1.942,1.151 4.103,1.729 6.484,1.729 2.094,0 3.964,-0.454 5.611,-1.36 1.646,-0.907 2.889,-2.152 3.733,-3.738 l 1.154,4.386 z" /></g><g
           transform="translate(278.3585,125.947)"
           id="g112"><path
             id="path114"
             style="fill:#1d1d1d;fill-opacity:1;fill-rule:nonzero;stroke:none"
             d="m 0,0 c 1.279,0.758 2.287,1.814 3.021,3.17 0.735,1.355 1.1,2.914 1.1,4.674 0,2.413 -0.689,4.366 -2.069,5.865 -1.377,1.494 -3.169,2.244 -5.367,2.244 -1.577,0 -3.004,-0.38 -4.284,-1.136 -1.282,-0.756 -2.296,-1.832 -3.045,-3.222 -0.754,-1.392 -1.13,-2.967 -1.13,-4.729 0,-2.411 0.686,-4.348 2.066,-5.811 1.379,-1.461 3.187,-2.189 5.424,-2.189 1.577,0 3.002,0.376 4.284,1.134 M 12.258,32.564 6.966,-4.542 H 3.288 L 3.395,-1.03 C 2.482,-2.298 1.214,-3.308 -0.415,-4.066 -2.044,-4.825 -3.8,-5.203 -5.678,-5.203 c -2.167,0 -4.062,0.49 -5.692,1.467 -1.629,0.975 -2.891,2.359 -3.788,4.144 -0.895,1.79 -1.343,3.854 -1.343,6.196 0,2.587 0.561,4.902 1.682,6.944 1.114,2.044 2.646,3.632 4.59,4.769 1.941,1.133 4.103,1.702 6.482,1.702 1.896,0 3.649,-0.423 5.248,-1.266 1.605,-0.847 2.844,-2.027 3.721,-3.541 l 2.469,17.352 z" /></g><g
           transform="translate(299.5843,126.9502)"
           id="g116"><path
             id="path118"
             style="fill:#1d1d1d;fill-opacity:1;fill-rule:nonzero;stroke:none"
             d="m 0,0 c 1.397,-1.494 3.267,-2.244 5.611,-2.244 1.681,0 3.2,0.396 4.55,1.189 1.352,0.793 2.412,1.894 3.183,3.301 0.767,1.41 1.154,2.994 1.154,4.756 0,2.339 -0.696,4.266 -2.079,5.782 -1.388,1.514 -3.237,2.272 -5.546,2.272 -1.683,0 -3.206,-0.397 -4.566,-1.19 C 0.947,13.075 -0.128,11.973 -0.915,10.564 -1.701,9.156 -2.096,7.57 -2.096,5.811 -2.096,3.435 -1.397,1.497 0,0 m -4.901,12.493 c 1.208,2.042 2.861,3.641 4.953,4.794 2.094,1.151 4.423,1.729 6.982,1.729 2.415,0 4.539,-0.506 6.377,-1.518 1.834,-1.013 3.248,-2.413 4.243,-4.199 0.992,-1.788 1.49,-3.836 1.49,-6.142 0,-2.551 -0.61,-4.841 -1.825,-6.866 -1.218,-2.025 -2.88,-3.612 -4.981,-4.768 -2.104,-1.151 -4.446,-1.727 -7.023,-1.727 -2.38,0 -4.483,0.505 -6.31,1.519 -1.827,1.012 -3.234,2.411 -4.227,4.196 -0.993,1.788 -1.492,3.817 -1.492,6.09 0,2.551 0.603,4.85 1.813,6.892" /></g><g
           transform="translate(349.5409,126.9165)"
           id="g120"><path
             id="path122"
             style="fill:#1d1d1d;fill-opacity:1;fill-rule:nonzero;stroke:none"
             d="m 0,0 c 1.279,0.758 2.287,1.813 3.021,3.169 0.735,1.356 1.1,2.915 1.1,4.675 0,2.413 -0.689,4.366 -2.069,5.865 -1.375,1.494 -3.166,2.244 -5.367,2.244 -1.577,0 -3.004,-0.381 -4.284,-1.136 -1.279,-0.756 -2.296,-1.832 -3.048,-3.222 -0.751,-1.392 -1.127,-2.967 -1.127,-4.729 0,-2.411 0.689,-4.348 2.068,-5.811 1.377,-1.462 3.187,-2.189 5.422,-2.189 1.575,0 3.004,0.375 4.284,1.134 M 12.258,32.564 6.968,-4.542 H 3.29 l 0.105,3.512 c -0.91,-1.268 -2.183,-2.278 -3.81,-3.037 -1.629,-0.758 -3.385,-1.136 -5.263,-1.136 -2.167,0 -4.065,0.489 -5.694,1.467 -1.627,0.975 -2.889,2.358 -3.786,4.144 -0.895,1.79 -1.343,3.853 -1.343,6.196 0,2.587 0.561,4.902 1.68,6.944 1.118,2.044 2.648,3.632 4.589,4.768 1.944,1.134 4.106,1.703 6.487,1.703 1.896,0 3.645,-0.424 5.248,-1.266 1.603,-0.847 2.842,-2.027 3.717,-3.541 l 2.471,17.352 z" /></g><g
           transform="translate(383.6264,136.1607)"
           id="g124"><path
             id="path126"
             style="fill:#1d1d1d;fill-opacity:1;fill-rule:nonzero;stroke:none"
             d="m 0,0 c 0.109,2.129 -0.452,3.826 -1.677,5.083 -1.227,1.26 -2.905,1.888 -5.035,1.888 -2.132,0 -3.924,-0.611 -5.384,-1.836 C -13.553,3.912 -14.402,2.201 -14.632,0 Z m -0.269,-12.256 c -2.236,-1.459 -4.825,-2.189 -7.76,-2.189 -2.309,0 -4.344,0.487 -6.108,1.464 -1.762,0.977 -3.117,2.35 -4.066,4.121 -0.95,1.768 -1.423,3.808 -1.423,6.112 0,2.553 0.558,4.862 1.676,6.921 1.119,2.06 2.668,3.674 4.647,4.844 1.976,1.171 4.192,1.757 6.645,1.757 2.2,0 4.166,-0.471 5.891,-1.412 C 0.96,8.42 2.302,7.129 3.247,5.492 4.199,3.854 4.672,1.99 4.672,-0.107 c 0,-1.038 -0.143,-2.087 -0.43,-3.142 h -19.357 c -0.18,-2.235 0.406,-4.045 1.758,-5.427 1.353,-1.384 3.18,-2.072 5.489,-2.072 1.648,0 3.133,0.378 4.459,1.134 1.324,0.758 2.299,1.744 2.927,2.958 h 4.509 c -0.628,-2.269 -2.057,-4.138 -4.296,-5.6" /></g><g
           transform="translate(410.8257,159.4807)"
           id="g128"><path
             id="path130"
             style="fill:#1d1d1d;fill-opacity:1;fill-rule:nonzero;stroke:none"
             d="m 0,0 h 4.564 l -5.29,-37.106 h -4.563 z" /></g><g
           transform="translate(424.5443,127.9197)"
           id="g132"><path
             id="path134"
             style="fill:#1d1d1d;fill-opacity:1;fill-rule:nonzero;stroke:none"
             d="m 0,0 c 1.397,-1.494 3.267,-2.244 5.614,-2.244 1.68,0 3.199,0.395 4.55,1.188 1.351,0.793 2.411,1.894 3.182,3.302 0.769,1.41 1.156,2.993 1.156,4.755 0,2.339 -0.697,4.267 -2.083,5.782 -1.388,1.515 -3.235,2.273 -5.546,2.273 -1.679,0 -3.204,-0.398 -4.564,-1.19 C 0.95,13.075 -0.124,11.973 -0.912,10.563 -1.701,9.156 -2.094,7.57 -2.094,5.811 -2.094,3.434 -1.397,1.496 0,0 m -4.9,12.493 c 1.21,2.041 2.86,3.64 4.954,4.794 2.095,1.151 4.423,1.729 6.98,1.729 2.42,0 4.544,-0.506 6.377,-1.518 1.838,-1.013 3.25,-2.414 4.243,-4.199 0.995,-1.788 1.49,-3.837 1.49,-6.142 0,-2.552 -0.608,-4.841 -1.824,-6.866 -1.219,-2.025 -2.879,-3.612 -4.982,-4.768 -2.102,-1.151 -4.442,-1.727 -7.023,-1.727 -2.378,0 -4.481,0.504 -6.308,1.519 -1.824,1.012 -3.234,2.411 -4.229,4.196 -0.993,1.788 -1.49,3.817 -1.49,6.089 0,2.552 0.604,4.851 1.812,6.893" /></g><g
           transform="translate(450.2932,123.694)"
           id="g136"><path
             id="path138"
             style="fill:#1d1d1d;fill-opacity:1;fill-rule:nonzero;stroke:none"
             d="M 0,0 C -1.736,1.321 -2.702,3.099 -2.898,5.335 H 1.505 C 1.683,4.175 2.261,3.241 3.237,2.537 4.212,1.833 5.435,1.481 6.903,1.481 c 1.539,0 2.783,0.344 3.733,1.028 0.946,0.689 1.422,1.594 1.422,2.722 0,1.618 -1.003,2.684 -3.009,3.195 L 4.7,9.456 c -1.789,0.475 -3.155,1.26 -4.094,2.35 -0.941,1.091 -1.41,2.411 -1.41,3.962 0,2.235 0.908,4.04 2.727,5.414 1.815,1.373 4.077,2.059 6.779,2.059 2.63,0 4.781,-0.676 6.458,-2.031 1.67,-1.358 2.561,-3.152 2.669,-5.39 h -4.431 c -0.072,1.162 -0.56,2.105 -1.464,2.826 -0.903,0.722 -2.053,1.082 -3.45,1.082 -1.359,0 -2.467,-0.308 -3.327,-0.923 -0.859,-0.617 -1.291,-1.479 -1.291,-2.587 0,-1.006 0.305,-1.718 0.915,-2.142 0.606,-0.421 1.331,-0.721 2.174,-0.897 l 3.839,-0.923 c 1.989,-0.476 3.482,-1.282 4.484,-2.418 1.003,-1.134 1.507,-2.514 1.507,-4.132 0,-2.309 -0.934,-4.163 -2.796,-5.571 C 12.127,-1.275 9.729,-1.979 6.795,-1.979 4.001,-1.979 1.738,-1.319 0,0" /></g><g
           transform="translate(501.8055,126.8121)"
           id="g140"><path
             id="path142"
             style="fill:#1d1d1d;fill-opacity:1;fill-rule:nonzero;stroke:none"
             d="m 0,0 c 1.262,0.756 2.259,1.823 2.993,3.196 0.735,1.372 1.101,2.921 1.101,4.646 0,2.448 -0.681,4.421 -2.042,5.917 -1.359,1.495 -3.123,2.244 -5.286,2.244 -1.578,0 -3.014,-0.38 -4.312,-1.134 -1.297,-0.758 -2.321,-1.833 -3.074,-3.223 -0.752,-1.39 -1.125,-2.968 -1.125,-4.727 0,-2.414 0.694,-4.358 2.093,-5.837 1.395,-1.479 3.194,-2.218 5.396,-2.218 1.578,0 2.994,0.378 4.256,1.136 M 10.457,19.411 5.572,-15.08 h -4.62 l 1.88,13.284 C 1.883,-2.837 0.667,-3.656 -0.819,-4.253 -2.307,-4.85 -3.879,-5.15 -5.543,-5.15 c -2.097,0 -3.967,0.495 -5.614,1.49 -1.646,0.995 -2.935,2.387 -3.864,4.173 -0.934,1.789 -1.399,3.853 -1.399,6.195 0,2.641 0.569,4.968 1.707,6.986 1.134,2.014 2.683,3.582 4.642,4.701 1.962,1.116 4.135,1.674 6.513,1.674 2.024,0 3.849,-0.471 5.478,-1.412 1.63,-0.942 2.846,-2.205 3.652,-3.788 l 1.047,4.542 z" /></g><g
           transform="translate(540.3756,146.2225)"
           id="g144"><path
             id="path146"
             style="fill:#1d1d1d;fill-opacity:1;fill-rule:nonzero;stroke:none"
             d="m 0,0 -3.356,-23.849 h -3.786 l -0.055,3.302 c -0.947,-1.338 -2.148,-2.333 -3.597,-2.985 -1.449,-0.652 -3.026,-0.975 -4.727,-0.975 -2.521,0 -4.442,0.658 -5.758,1.979 -1.315,1.32 -1.973,3.134 -1.973,5.441 0,0.756 0.035,1.356 0.106,1.796 L -20.945,0 h 4.566 l -2.039,-14.445 c -0.074,-0.793 -0.107,-1.312 -0.107,-1.558 0,-1.62 0.428,-2.783 1.286,-3.489 0.86,-0.703 2.079,-1.055 3.652,-1.055 1.826,0 3.386,0.621 4.672,1.861 1.288,1.243 2.078,2.892 2.361,4.953 L -4.566,0 Z" /></g><g
           transform="translate(564.0557,136.1607)"
           id="g148"><path
             id="path150"
             style="fill:#1d1d1d;fill-opacity:1;fill-rule:nonzero;stroke:none"
             d="m 0,0 c 0.111,2.129 -0.449,3.826 -1.674,5.083 -1.228,1.26 -2.907,1.888 -5.038,1.888 -2.129,0 -3.924,-0.611 -5.383,-1.836 C -13.552,3.912 -14.399,2.201 -14.632,0 Z m -0.267,-12.256 c -2.237,-1.459 -4.824,-2.189 -7.76,-2.189 -2.308,0 -4.343,0.487 -6.11,1.464 -1.76,0.977 -3.117,2.35 -4.066,4.121 -0.947,1.768 -1.423,3.808 -1.423,6.112 0,2.553 0.561,4.862 1.679,6.921 1.117,2.06 2.665,3.674 4.644,4.844 1.98,1.171 4.195,1.757 6.647,1.757 2.201,0 4.167,-0.471 5.891,-1.412 C 0.963,8.42 2.302,7.129 3.25,5.492 4.202,3.854 4.672,1.99 4.672,-0.107 c 0,-1.038 -0.141,-2.087 -0.43,-3.142 h -19.356 c -0.181,-2.235 0.406,-4.045 1.759,-5.427 1.351,-1.384 3.181,-2.072 5.489,-2.072 1.647,0 3.131,0.378 4.458,1.134 1.325,0.758 2.3,1.744 2.926,2.958 h 4.509 c -0.625,-2.269 -2.056,-4.138 -4.294,-5.6" /></g><g
           transform="translate(591.2557,159.4807)"
           id="g152"><path
             id="path154"
             style="fill:#1d1d1d;fill-opacity:1;fill-rule:nonzero;stroke:none"
             d="M 0,0 H 4.566 L 2.177,-16.507 c 0.912,1.234 2.132,2.201 3.662,2.905 1.531,0.705 3.101,1.058 4.711,1.058 2.42,0 4.317,-0.67 5.696,-2.008 1.377,-1.338 2.066,-3.247 2.066,-5.732 0,-0.652 -0.063,-1.336 -0.187,-2.06 l -2.068,-14.762 h -4.564 l 1.905,13.733 c 0.072,0.438 0.109,1.02 0.109,1.742 0,1.797 -0.447,3.082 -1.343,3.856 -0.897,0.775 -2.024,1.164 -3.384,1.164 -1.827,0 -3.465,-0.552 -4.914,-1.651 -1.449,-1.101 -2.317,-2.674 -2.604,-4.714 L -0.726,-37.054 H -5.29 Z" /></g><g
           transform="translate(631.3574,126.9165)"
           id="g156"><path
             id="path158"
             style="fill:#1d1d1d;fill-opacity:1;fill-rule:nonzero;stroke:none"
             d="m 0,0 c 1.297,0.758 2.329,1.822 3.102,3.197 0.766,1.373 1.153,2.939 1.153,4.701 0,2.411 -0.695,4.358 -2.083,5.835 -1.388,1.479 -3.2,2.22 -5.435,2.22 -1.577,0 -3.017,-0.381 -4.323,-1.136 -1.308,-0.756 -2.346,-1.832 -3.115,-3.222 -0.771,-1.392 -1.153,-2.967 -1.153,-4.729 0,-2.377 0.695,-4.303 2.092,-5.782 1.395,-1.48 3.232,-2.218 5.506,-2.218 1.538,0 2.957,0.375 4.256,1.134 M 10.539,19.307 7.127,-4.542 H 2.724 l 0.428,3.301 c -0.945,-1.233 -2.218,-2.2 -3.81,-2.904 -1.595,-0.704 -3.331,-1.058 -5.21,-1.058 -2.057,0 -3.903,0.498 -5.532,1.493 -1.629,0.995 -2.898,2.387 -3.812,4.172 -0.913,1.788 -1.369,3.834 -1.369,6.142 0,2.552 0.561,4.848 1.679,6.892 1.117,2.042 2.648,3.641 4.59,4.794 1.94,1.151 4.105,1.729 6.484,1.729 2.094,0 3.962,-0.454 5.611,-1.36 1.649,-0.908 2.891,-2.152 3.732,-3.738 l 1.153,4.386 z" /></g><g
           transform="translate(651.5862,123.2337)"
           id="g160"><path
             id="path162"
             style="fill:#1d1d1d;fill-opacity:1;fill-rule:nonzero;stroke:none"
             d="m 0,0 c -1.736,1.012 -3.091,2.411 -4.066,4.199 -0.976,1.786 -1.464,3.832 -1.464,6.141 0,2.552 0.588,4.839 1.759,6.866 1.173,2.025 2.774,3.613 4.807,4.766 2.031,1.154 4.279,1.729 6.752,1.729 3.078,0 5.686,-0.841 7.824,-2.522 2.142,-1.679 3.416,-3.903 3.827,-6.666 h -4.618 c -0.411,1.618 -1.266,2.895 -2.563,3.827 -1.299,0.934 -2.832,1.402 -4.605,1.402 -1.612,0 -3.067,-0.398 -4.362,-1.191 -1.299,-0.791 -2.324,-1.892 -3.074,-3.3 -0.752,-1.409 -1.129,-2.993 -1.129,-4.755 0,-2.376 0.671,-4.311 2.015,-5.811 1.341,-1.494 3.122,-2.243 5.342,-2.243 1.683,0 3.23,0.421 4.644,1.268 1.415,0.845 2.381,1.953 2.9,3.326 h 4.618 C 18.249,5.383 17.454,3.903 16.22,2.6 14.982,1.299 13.479,0.284 11.708,-0.436 9.936,-1.158 8.057,-1.518 6.069,-1.518 3.758,-1.518 1.738,-1.014 0,0" /></g><g
           transform="translate(694.8148,136.1607)"
           id="g164"><path
             id="path166"
             style="fill:#1d1d1d;fill-opacity:1;fill-rule:nonzero;stroke:none"
             d="m 0,0 c 0.109,2.129 -0.452,3.826 -1.677,5.083 -1.227,1.26 -2.905,1.888 -5.035,1.888 -2.13,0 -3.924,-0.611 -5.384,-1.836 C -13.555,3.912 -14.4,2.201 -14.632,0 Z m -0.267,-12.256 c -2.24,-1.459 -4.825,-2.189 -7.76,-2.189 -2.311,0 -4.344,0.487 -6.11,1.464 -1.762,0.977 -3.117,2.35 -4.069,4.121 -0.945,1.768 -1.42,3.808 -1.42,6.112 0,2.553 0.56,4.862 1.676,6.921 1.12,2.06 2.668,3.674 4.645,4.844 1.979,1.171 4.194,1.757 6.647,1.757 2.2,0 4.166,-0.471 5.893,-1.412 C 0.962,8.42 2.3,7.129 3.249,5.492 4.199,3.854 4.67,1.99 4.67,-0.107 4.67,-1.145 4.529,-2.194 4.242,-3.249 h -19.359 c -0.178,-2.235 0.408,-4.045 1.762,-5.427 1.349,-1.384 3.178,-2.072 5.489,-2.072 1.646,0 3.131,0.378 4.455,1.134 1.326,0.758 2.301,1.744 2.927,2.958 h 4.511 c -0.626,-2.269 -2.059,-4.138 -4.294,-5.6" /></g><g
           transform="translate(725.0353,144.9026)"
           id="g168"><path
             id="path170"
             style="fill:#1d1d1d;fill-opacity:1;fill-rule:nonzero;stroke:none"
             d="m 0,0 c 1.388,-1.358 2.078,-3.275 2.078,-5.756 0,-0.62 -0.05,-1.286 -0.16,-2.01 L -0.174,-22.528 H -4.74 l 1.933,13.733 c 0.109,0.652 0.161,1.266 0.161,1.848 0,3.277 -1.592,4.912 -4.779,4.912 -1.985,0 -3.65,-0.593 -4.981,-1.781 -1.332,-1.191 -2.142,-2.718 -2.43,-4.582 l -1.986,-14.078 h -4.566 l 3.356,23.795 h 3.786 l 0.055,-3.3 c 0.914,1.232 2.128,2.207 3.651,2.931 1.523,0.723 3.132,1.084 4.833,1.084 C -3.291,2.034 -1.389,1.356 0,0" /></g><g
           transform="translate(731.5731,122.6118)"
           id="g172"><path
             id="path174"
             style="fill:#1d1d1d;fill-opacity:1;fill-rule:nonzero;stroke:none"
             d="m 0,0 c -0.628,0.598 -0.941,1.365 -0.941,2.298 0,1.039 0.376,1.923 1.128,2.653 C 0.941,5.683 1.87,6.048 2.98,6.048 3.93,6.048 4.727,5.741 5.37,5.122 6.015,4.507 6.336,3.734 6.336,2.8 6.336,1.762 5.969,0.884 5.235,0.172 4.5,-0.541 3.563,-0.897 2.415,-0.897 1.431,-0.897 0.625,-0.597 0,0" /></g></g></g></g></svg>