<?xml version="1.0" encoding="UTF-8"?>
<svg width="496px" height="156px" viewBox="0 0 496 156" version="1.1" xmlns="http://www.w3.org/2000/svg" xmlns:xlink="http://www.w3.org/1999/xlink">
    <!-- Generator: Sketch 55.2 (78181) - https://sketchapp.com -->
    <title>Libera_White+Color</title>
    <desc>Created with Sketch.</desc>
    <g id="Page-1" stroke="none" stroke-width="1" fill="none" fill-rule="evenodd">
        <g id="Libera_White+Color">
            <path d="M454.2142,94.0871 C454.2142,83.4801 450.4182,74.2811 442.9332,66.7451 C439.4782,63.3381 435.3472,60.5681 430.6692,58.5281 C426.0232,56.5021 420.9792,55.4741 415.6792,55.4741 C410.3822,55.4741 405.3392,56.5021 400.6892,58.5281 C396.0092,60.5701 391.8492,63.3431 388.3222,66.7711 C380.8612,74.2841 377.0662,83.4831 377.0662,94.0871 C377.0662,104.6941 380.8612,113.8931 388.3472,121.4301 C391.8032,124.8371 395.9352,127.6061 400.6112,129.6471 C405.2572,131.6731 410.3002,132.7001 415.6002,132.7001 C420.9012,132.7001 425.9442,131.6731 430.5912,129.6471 C435.2652,127.6071 439.4222,124.8381 442.9462,121.4171 C450.4232,113.8821 454.2142,104.6881 454.2142,94.0871 Z M475.1732,36.2071 C475.7522,36.9241 476.0682,37.8171 476.0682,38.7421 C476.0682,40.9681 474.2592,42.7781 472.0332,42.7781 L470.7992,42.7781 L470.7992,93.2241 C470.7992,93.3041 470.7942,93.3841 470.7852,93.4631 L470.7862,93.5121 C470.7932,93.7031 470.7992,93.8941 470.7992,94.0871 L470.7992,147.0831 C470.8032,147.0691 470.8052,147.1271 470.8052,147.2001 C470.8052,151.7751 467.0822,155.4971 462.5052,155.4971 C457.9302,155.4971 454.2082,151.7751 454.2082,147.2001 C454.2082,147.1491 454.2132,147.0401 454.2172,146.9891 L454.2152,133.4211 C449.3112,138.2311 443.5412,142.0841 437.0592,144.8781 C430.3942,147.7501 423.1742,149.2061 415.6002,149.2061 C408.0292,149.2061 400.8092,147.7501 394.1422,144.8781 C387.4942,142.0121 381.6012,138.0371 376.6272,133.0621 C371.6482,128.0831 367.6722,122.1751 364.8092,115.5021 C361.9382,108.8131 360.4822,101.6081 360.4822,94.0871 C360.4822,86.5661 361.9522,79.3581 364.8502,72.6661 C367.7412,65.9941 371.7302,60.0881 376.7042,55.1121 C381.6812,50.1361 387.5742,46.1611 394.2202,43.2961 C400.8872,40.4241 408.1072,38.9681 415.6792,38.9681 C423.2532,38.9681 430.4722,40.4241 437.1372,43.2961 C443.5892,46.0771 449.3312,49.9031 454.2142,54.6761 L454.2142,42.7781 L452.9992,42.7781 C451.5082,42.7781 450.1442,41.9611 449.4412,40.6451 C448.7372,39.3321 448.8142,37.7441 449.6432,36.5031 L459.1492,22.2411 C459.8992,21.1161 461.1532,20.4441 462.5062,20.4441 C463.8602,20.4441 465.1142,21.1161 465.8642,22.2411 L475.1732,36.2071 Z M487.6253,140.5163 C488.7313,140.5163 489.3593,139.9373 489.3593,139.1193 C489.3593,138.2043 488.7313,137.7223 487.6253,137.7223 L485.5553,137.7223 L485.5553,140.5163 L487.6253,140.5163 Z M483.9173,137.0963 C483.9173,136.6623 484.2533,136.2763 484.7353,136.2763 L487.7693,136.2763 C489.6463,136.2763 491.0443,137.1923 491.0443,138.9743 C491.0443,140.2743 490.3203,141.1903 489.1653,141.6233 L490.8043,143.5503 C490.9953,143.7903 491.0443,143.9833 491.0443,144.1763 C491.0443,144.6093 490.7073,144.9943 490.2733,144.9943 C489.9383,144.9943 489.6953,144.8023 489.5023,144.5613 L487.2883,141.8643 L485.5553,141.8643 L485.5553,144.1283 C485.5553,144.6093 485.1683,144.9943 484.7353,144.9943 C484.2533,144.9943 483.9173,144.6093 483.9173,144.1283 L483.9173,137.0963 Z M494.3623,140.7073 L494.3623,140.6623 C494.3623,136.7043 491.2883,133.4453 487.1893,133.4453 C483.1423,133.4453 480.0213,136.7493 480.0213,140.7073 L480.0213,140.7533 C480.0213,144.7133 483.0953,147.9723 487.1893,147.9723 C491.2423,147.9723 494.3623,144.6663 494.3623,140.7073 Z M478.8103,140.7563 L478.8103,140.7073 C478.8103,136.1323 482.5203,132.2793 487.1893,132.2793 C491.9103,132.2793 495.5703,136.0843 495.5703,140.6603 L495.5703,140.7073 C495.5703,145.2843 491.8623,149.1363 487.1893,149.1363 C482.4713,149.1363 478.8103,145.3323 478.8103,140.7563 Z" id="Combined-Shape" fill="#4BA1A9"></path>
            <path d="M470.7991,120.9623 C466.5571,129.1523 460.9311,137.5123 454.2141,143.7113 L454.2141,133.2673 C464.5531,121.0583 470.7991,105.2743 470.7991,88.0233 L470.7991,120.9623 Z M451.3255,52.048 C452.4625,53.009 453.5435,53.981 454.2145,54.676 L454.2145,94.087 C454.2145,85.584 451.7535,78.371 447.3805,72.012 L447.3805,49.003 C448.3995,49.69 449.9765,50.908 451.3255,52.048 Z" id="Combined-Shape" fill="#0B676E"></path>
            <path d="M239.2894,55.7211 C234.0074,55.7211 228.9824,56.7451 224.3514,58.7651 C219.6884,60.7981 215.5714,63.5591 212.1134,66.9691 C206.8064,72.3211 203.3264,78.6981 201.7614,85.9401 L276.8324,85.9401 C275.3084,78.6981 271.8494,72.3201 266.5284,66.9531 C263.0394,63.5641 258.8924,60.8001 254.2274,58.7651 C249.5954,56.7451 244.5694,55.7211 239.2894,55.7211 Z M278.1324,55.3611 C283.0924,60.3231 287.0664,66.2081 289.9454,72.8551 C292.8354,79.5271 294.3004,86.7091 294.3004,94.2031 L294.3004,100.4681 C294.3004,101.5731 293.4044,102.4681 292.3004,102.4681 L201.7574,102.4681 C203.3214,109.7511 206.8014,116.1271 212.1234,121.4491 C219.5784,128.9051 228.7184,132.6861 239.2894,132.6861 C244.3304,132.6861 249.2934,131.7081 254.0404,129.7801 C258.5754,127.9071 262.7884,125.0951 266.5524,121.4301 C266.5884,121.3951 266.6244,121.3621 266.6634,121.3291 C268.1984,119.8501 270.2104,119.0371 272.3484,119.0371 C276.8684,119.0371 280.5454,122.7151 280.5454,127.2371 C280.5454,129.4351 279.6864,131.4991 278.1274,133.0501 C273.0134,138.2191 266.9934,142.2421 260.2474,144.9941 C253.5664,147.7421 246.5134,149.1361 239.2894,149.1361 C231.7384,149.1361 224.5434,147.6851 217.9044,144.8241 C211.2784,141.9681 205.4034,138.0051 200.4464,133.0461 C195.4914,128.1481 191.5264,122.2841 188.6694,115.6241 C185.8084,108.9601 184.3574,101.7521 184.3574,94.2031 C184.3574,86.7071 185.8084,79.5271 188.6694,72.8611 C191.5234,66.2081 195.4864,60.3211 200.4464,55.3611 C205.4044,50.4031 211.2784,46.4411 217.9044,43.5841 C224.5474,40.7221 231.7424,39.2711 239.2894,39.2711 C246.8364,39.2711 254.0324,40.7221 260.6744,43.5841 C267.2974,46.4391 273.1704,50.4011 278.1324,55.3611 Z M357.4515,38.9318 C362.0145,38.9688 365.6745,42.6578 365.6745,47.1548 C365.6745,51.5788 362.1305,55.2198 357.7305,55.3688 C357.6545,55.3768 357.5775,55.3818 357.4995,55.3818 C352.2155,55.3818 347.1895,56.4068 342.5595,58.4258 C337.8995,60.4588 333.7825,63.2188 330.3225,66.6298 C322.8775,74.1238 319.0955,83.2918 319.0955,93.8648 L319.0955,141.1288 C319.1015,141.1748 319.1065,141.2668 319.1065,141.3608 C319.1065,145.9208 315.3965,149.6308 310.8365,149.6308 C306.2765,149.6308 302.5665,145.9208 302.5665,141.3608 L302.5665,93.8648 C302.5665,86.3698 304.0175,79.1888 306.8795,72.5208 C309.7315,65.8728 313.6935,59.9858 318.6565,55.0218 C323.6165,50.0628 329.4895,46.1008 336.1145,43.2448 C342.7115,40.4018 349.8605,38.9518 357.3625,38.9338 C357.3945,38.9318 357.4265,38.9318 357.4515,38.9318 Z M41.3426,19.4853 C35.9706,19.4853 31.6006,15.1143 31.6006,9.7433 C31.6006,4.3703 35.9706,0.0003 41.3426,0.0003 C46.7156,0.0003 51.0866,4.3703 51.0866,9.7433 C51.0866,15.1143 46.7156,19.4853 41.3426,19.4853 Z M41.3431,38.9318 C45.9041,38.9318 49.6141,42.6418 49.6141,47.2028 C49.6141,47.2498 49.6081,140.7518 49.6081,140.7518 C49.6111,140.7368 49.6141,140.7948 49.6141,140.8668 C49.6141,145.4258 45.9041,149.1358 41.3431,149.1358 C36.7831,149.1358 33.0731,145.4258 33.0731,140.8668 C33.0731,140.8178 33.0781,140.7088 33.0821,140.6588 L33.0791,47.3168 C33.0771,47.3348 33.0731,47.2748 33.0731,47.2028 C33.0731,42.6418 36.7831,38.9318 41.3431,38.9318 Z M16.532,8.477 L16.534,140.751 C16.538,140.737 16.54,140.794 16.54,140.867 C16.54,145.426 12.83,149.136 8.269,149.136 C3.709,149.136 0,145.426 0,140.867 C0,140.818 0.005,140.708 0.008,140.659 L0.006,8.386 C0.003,8.403 0,8.344 0,8.271 C0,3.71 3.709,-1.42108547e-14 8.269,-1.42108547e-14 C12.83,-1.42108547e-14 16.54,3.71 16.54,8.271 C16.54,8.319 16.535,8.429 16.532,8.477 Z M171.7366,72.8539 C174.6256,79.5259 176.0906,86.7079 176.0906,94.2039 C176.0906,101.7499 174.6256,108.9589 171.7366,115.6309 C168.8536,122.2859 164.8766,128.1479 159.9146,133.0529 C154.9646,138.0049 149.0906,141.9669 142.4656,144.8239 C135.8276,147.6839 128.6326,149.1349 121.0796,149.1349 C113.5276,149.1349 106.3326,147.6839 99.6946,144.8239 C93.0676,141.9669 87.1936,138.0039 82.2366,133.0449 C77.2796,128.1449 73.3156,122.2819 70.4596,115.6249 C67.5986,108.9589 66.1476,101.7509 66.1476,94.2039 L66.1476,8.2699 C66.1476,3.7109 69.8576,0.0009 74.4166,0.0009 C78.9776,0.0009 82.6886,3.7109 82.6886,8.2699 C82.6886,8.3679 82.6836,8.4649 82.6766,8.5609 L82.6756,94.2039 C82.6756,104.7769 86.4576,113.9449 93.9176,121.4519 C101.3706,128.9049 110.5106,132.6859 121.0796,132.6859 C131.6516,132.6859 140.8196,128.9029 148.3296,121.4429 C155.7796,113.9429 159.5626,104.7749 159.5626,94.2039 C159.5626,83.6339 155.7796,74.4659 148.3196,66.9549 C144.8306,63.5639 140.6836,60.7999 136.0196,58.7649 C131.3876,56.7459 126.3616,55.7209 121.0796,55.7209 C115.9396,55.7209 110.9806,56.6969 106.3426,58.6229 C103.9826,59.6259 101.7076,60.8589 99.5966,62.2779 C99.4566,62.3719 99.3076,62.4389 99.1556,62.4929 C97.9216,63.2409 96.4796,63.6789 94.9346,63.6789 C90.4216,63.6789 86.7496,60.0069 86.7496,55.4939 C86.7496,52.8639 88.0006,50.5269 89.9326,49.0279 C90.0486,48.8909 90.1776,48.7629 90.3296,48.6609 C93.3736,46.5989 96.6666,44.8339 100.1166,43.4149 C106.8016,40.6659 113.8546,39.2709 121.0796,39.2709 C128.6266,39.2709 135.8206,40.7219 142.4646,43.5829 C149.0866,46.4379 154.9606,50.3999 159.9226,55.3609 C164.8826,60.3219 168.8566,66.2079 171.7366,72.8539 Z" id="Combined-Shape" fill="#FFFFFF"></path>
        </g>
    </g>
</svg>